<svg version="1" xmlns="http://www.w3.org/2000/svg" width="1365.333" height="1365.333" viewBox="0 0 1024.000000 1024.000000"><path d="M539.8 73.4c-.1.2-7.7.6-16.7 1-9 .3-16.6.8-17 1-.3.2-4.6.7-9.5 1-4.9.4-9.2.9-9.5 1-.3.2-2.8.6-5.6 1-2.7.3-6 .8-7.1 1-1.2.2-3.8.7-5.9 1-50.8 8.1-113.4 33.1-158 63-6.2 4.1-26.4 18.8-30 21.7-18.8 15.4-39.5 35-53 50.3-3.9 4.3-7.5 8.4-8 9-.6.6-2.6 3.1-4.5 5.6-1.9 2.5-3.7 4.7-4.1 5-3.5 2.8-25.8 35.9-35.1 52-9.1 15.8-27.8 55.7-27.8 59.3 0 .5-.6 2.3-1.4 4-3.7 8.1-14.6 46-17 59.2-3.4 18.2-4.2 23.2-5.2 31.3-.3 2.6-.7 5.8-.9 7.2-2.8 18-2.7 84.9.1 99.5.2 1.1.7 4 1 6.5 1.5 11.6 3.6 21.6 4.9 23.7 2.1 3.2 5.8 5.4 9.3 5.5 2.1.1 3.2.7 3.5 1.9.3 1.1 0 1.9-.6 1.9-2.1.1-5.7 3.8-7.2 7.3-1.3 3.2-1.2 4.3 1 12.9 5.8 22.4 17.3 53.3 21.2 57 1.8 1.7 3.7 2.3 7.5 2.4 6.2.2 8.4 2.7 4.9 5.3-5.3 4-5.5 12.3-.5 20.2 1.3 2.1 2.4 4.1 2.4 4.4 0 3.9 38.9 62.3 44.9 67.5.3.3 2.8 3.2 5.6 6.5 12.2 14.7 32.9 35.5 47.9 48 2.6 2.2 5.8 4.8 7 5.9 8.2 7.2 34.5 25.7 48.6 34.2 25 15.1 57.3 29.8 86 39.4 11.2 3.7 38.8 11.1 46.5 12.4 1.7.3 4.1.8 5.5 1.1 9.7 2 29.9 4.7 45.5 6.2 10.2 1 59.3 1 70.7.1 32.3-2.8 69-10.5 98.8-20.8 8-2.8 15-5.2 15.5-5.4 8.8-2.9 26.9-11 42.5-19 10.6-5.4 31.1-16.9 33.5-18.8.6-.5 4.8-3.3 9.4-6.4 13.4-8.8 29.1-20.8 43.6-33.3 8.1-7 37.3-36.9 44.1-45.1 25.1-30.3 50.9-70.6 53.2-83.1 2.8-14.6-4.7-29-18.4-35.5-5.2-2.4-7.6-2.8-25.9-3.9-5.4-.4-10.1-.8-10.5-1-.3-.1-2.6-.6-5.2-.9-10.8-1.5-28-7.3-41.2-14.1-16.1-8.3-26.6-16.2-39.7-29.7-10.9-11.2-18.6-21.9-25.4-35.1-11.6-22.5-16.3-41.6-17.4-71.4-.1-3.3-5.8-9.3-8.8-9.3-2.5 0-2.5-.1-1.9-6.3 1.5-13.6 1.6-14 6-14.4 5.4-.4 9.1-4.2 11.2-11.2 4.1-14.4 15-35.9 23.4-46.5 20.4-25.7 41.5-41.3 70-51.9 15.1-5.6 30.3-8.4 48.2-9.1 12.1-.5 18.5-2.6 24.9-8.4 7.1-6.3 11.1-15.1 11.1-24 0-6.8-2.6-15.4-5.9-19.3-.7-.8-1.3-1.8-1.3-2.2 0-2.1-20.5-34.3-29.7-46.6-2.9-4-21.5-27-24.3-30.1-14.5-16.2-35-35.6-50.5-47.9-4.4-3.4-9.1-7.2-10.5-8.4-2.3-1.9-30-20.6-36.5-24.6-15.8-9.7-41.3-22.3-60.6-30-11.9-4.7-29.4-10.9-33.2-11.6-.9-.2-2.1-.6-2.6-.9-1.6-1.1-32.7-8.5-43.6-10.5-16.3-3-20.6-3.6-31.5-4.6-4.1-.4-8.4-.9-9.5-1.1-1.1-.2-10.1-.7-20-1-9.9-.3-18.5-.7-19.2-.9-.6-.2-1.3-.2-1.5-.1zm100.9 608.1c9.2 1.4 20.8 8 27.6 15.5 19.9 22.2 15.8 57.2-8.8 73.9-16.7 11.4-39.4 11.5-55.9.2-9.8-6.7-18.5-19.8-20.6-30.8-.8-4.4-.7-17.6.2-21.3 3.6-14.4 14.5-27.7 27.6-33.8 8.6-3.9 19.8-5.3 29.9-3.7zM769.2 100.5c-1.1 1.4-1.8 3.4-1.5 4.4 1.4 5.6 8.6 6.7 11.3 1.8 1.3-2.4 1.3-3 0-5.5-2.2-3.8-7-4.2-9.8-.7zM803.2 113.2c-2 2-1.4 5.4 1.3 6.6 1.9.9 2.7.8 4-.4 2.8-2.8 1.2-7.4-2.5-7.4-.9 0-2.1.5-2.8 1.2zM234.5 113.8c-3.5.8-5.5 4.2-5.5 9.2 0 4.7 0 4.7-3.2 4.5-9-.4-13.7 5.7-9 11.5 1.4 1.7 3.1 2.4 6.3 2.5 2.4.2 4.7.3 5.2.4.4 0 .7 2.1.7 4.5 0 5.1 2.2 8.3 6.2 9 4.4.7 7.1-2.2 7.8-8.4l.5-5.3 4.9-.2c3.8-.2 5.4-.8 6.8-2.5 4.7-5.8-.2-12.1-8.9-11.4-3.3.2-3.3.2-3.3-4.4-.1-6.5-3.7-10.5-8.5-9.4zM143 279c-2.4 2.4-2.5 3.4-.4 5.4 2.1 2.2 4.7 2 6.2-.4 2.6-4.2-2.4-8.4-5.8-5z"/><path d="M833 415.8c-11.4 3.4-18.4 12.4-18.3 23.7.1 9.9 4.9 17.2 14.3 21.4 5.6 2.5 11 2.6 17.4.4 9-3.3 15.6-12.9 15.6-22.8 0-4.9-3.7-13.1-7.6-16.7-5-4.7-15.8-7.7-21.4-6zm11.7 16.5c6.5 5.8 1.9 16.7-7.1 16.7-3.2 0-8.4-4.7-9-8-1.5-9 9.3-14.9 16.1-8.7zM799.8 490.2c-2.7 2.2-2.9 4.6-.5 6.3 1.2.8 2.5 1.5 2.9 1.5 1.2 0 3.8-3.1 3.8-4.5s-2.6-4.5-3.9-4.5c-.4 0-1.4.6-2.3 1.2zM920.4 776c-3 1.1-4.8 3.8-5 7.4-.1 1.7-.2 3.8-.3 4.7-.1 1.1-1.3 1.5-4.6 1.5-6.8.1-10.7 4.7-8.3 9.9 1.2 2.7 3.5 3.8 8.8 4.1 1.9.1 3.8.2 4.1.3.4.1.5 1.6.3 3.3-.4 4.4 1.3 8.6 4 9.5 3.9 1.3 4.7 1.2 7.3-1.1 2.2-1.9 2.7-3.2 2.7-7.1l.1-4.9 4.7-.1c7.9-.2 11.8-6.1 7.4-11.2-1.7-2-3.2-2.5-7.1-2.7l-5-.2-.1-4.7c-.1-6.7-4-10.5-9-8.7zM172.9 811.3c-8.7 4.6-12.7 14.4-9.9 24.3 3.2 11.3 16.7 17.4 27.6 12.5 13.1-6 16.4-22.6 6.6-32.7-6.6-6.8-16.1-8.4-24.3-4.1zm14.7 14.2c2.8 4.3-.2 10.5-5.1 10.5-2.9 0-6.5-3.6-6.5-6.5 0-6.2 8.3-9.1 11.6-4zM857.1 847.6c-2.6 1.8-2.5 5.1.2 6.8 2.3 1.5 5.1-.3 5.5-3.7.4-3.5-2.6-5.2-5.7-3.1z"/></svg>